<svg width="20" height="15" viewBox="0 0 20 15" fill="none" xmlns="http://www.w3.org/2000/svg">
<path d="M4.01497 7.54848L1.31755 12.1341C1.19672 12.3523 0.967265 12.4863 0.71812 12.4844C0.595424 12.4834 0.475544 12.4525 0.368774 12.3945C0.197376 12.2999 0.0718654 12.1397 0.0231679 11.9505C-0.0264718 11.7613 0.00443624 11.5609 0.108399 11.3951L2.75619 6.81979C3.23386 6.03306 4.09459 5.561 5.01435 5.58066H9.23C9.64116 5.57504 10.0196 5.35587 10.2294 5.00089L12.8772 0.415275H12.8762C12.9568 0.234509 13.1094 0.0968355 13.2977 0.0350226C13.485 -0.0267927 13.6901 -0.0061894 13.8625 0.092155C14.0339 0.189562 14.1566 0.355351 14.1987 0.549206C14.2408 0.742147 14.1996 0.943509 14.0854 1.10461L11.4076 5.69023C10.9477 6.47979 10.1039 6.96588 9.18972 6.96962H5.01436C4.6013 6.97056 4.22103 7.19162 4.01497 7.54848ZM20 2.67346V13.6626C20 13.8471 19.926 14.0242 19.7939 14.1544C19.6628 14.2836 19.4849 14.3548 19.3004 14.352H4.01497C3.77895 14.3445 3.56353 14.219 3.43991 14.0176C3.31721 13.8162 3.3041 13.5662 3.40525 13.3536L5.01433 10.6758C5.47421 9.88625 6.31808 9.40016 7.23221 9.39736H11.4479C11.859 9.39174 12.2374 9.17163 12.4472 8.81759L16.1936 2.32412C16.3145 2.10589 16.5439 1.97194 16.7931 1.97384H19.3004C19.6862 1.97384 20 2.28757 20 2.67346ZM18.6017 3.37311H17.1621L13.6152 9.51724H13.6161C13.1553 10.3059 12.3114 10.7929 11.3982 10.7957H7.18162C6.7695 10.7976 6.38925 11.0177 6.18319 11.3755L5.24377 13.0042L18.6007 13.0033L18.6017 3.37311Z" fill="#2EB2FF"/>
</svg>
