<svg width="154" height="104" viewBox="0 0 154 104" fill="none" xmlns="http://www.w3.org/2000/svg">
<g clip-path="url(#clip0_747_756)">
<path d="M118.249 0H59.8175V23.3441C65.8029 23.2876 116.993 23.1841 117.865 35.4774C117.865 35.4774 128.075 39.5155 125.133 47.7613C125.133 47.7613 121.602 43.0454 115.232 43.0454C111.673 43.0454 95.4588 43.1395 95.4588 43.1395V30.6862L59.8175 30.818H0C2.67895 36.8234 8.59888 40.6921 15.1464 40.711H15.8676L16.2985 42.0476C17.8066 46.7164 21.9093 49.9921 26.6865 50.4816L27.2766 51.2911C30.9953 56.4023 36.9152 59.4145 43.2192 59.4145H59.8268V103.476H95.4025V70.3711H118.258C137.591 70.3711 153.272 54.6233 153.272 35.1856C153.272 15.7573 137.601 0 118.258 0H118.249Z" fill="white"/>
</g>
<defs>
<clipPath id="clip0_747_756">
<rect width="153.262" height="103.134" fill="white"/>
</clipPath>
</defs>
</svg>
